<svg id="visual" viewBox="0 0 450 900" width="450" height="900" xmlns="http://www.w3.org/2000/svg" xmlns:xlink="http://www.w3.org/1999/xlink" version="1.1"><path d="M0 262L15 257.5C30 253 60 244 90 254.5C120 265 150 295 180 314.5C210 334 240 343 270 326.5C300 310 330 268 360 254.5C390 241 420 256 435 263.5L450 271L450 0L435 0C420 0 390 0 360 0C330 0 300 0 270 0C240 0 210 0 180 0C150 0 120 0 90 0C60 0 30 0 15 0L0 0Z" fill="#9e90fa"></path><path d="M0 388L15 379C30 370 60 352 90 373C120 394 150 454 180 482.5C210 511 240 508 270 485.5C300 463 330 421 360 407.5C390 394 420 409 435 416.5L450 424L450 269L435 261.5C420 254 390 239 360 252.5C330 266 300 308 270 324.5C240 341 210 332 180 312.5C150 293 120 263 90 252.5C60 242 30 251 15 255.5L0 260Z" fill="#816ef5"></path><path d="M0 559L15 563.5C30 568 60 577 90 601C120 625 150 664 180 674.5C210 685 240 667 270 653.5C300 640 330 631 360 611.5C390 592 420 562 435 547L450 532L450 422L435 414.5C420 407 390 392 360 405.5C330 419 300 461 270 483.5C240 506 210 509 180 480.5C150 452 120 392 90 371C60 350 30 368 15 377L0 386Z" fill="#6652de"></path><path d="M0 901L15 901C30 901 60 901 90 901C120 901 150 901 180 901C210 901 240 901 270 901C300 901 330 901 360 901C390 901 420 901 435 901L450 901L450 530L435 545C420 560 390 590 360 609.5C330 629 300 638 270 651.5C240 665 210 683 180 672.5C150 662 120 623 90 599C60 575 30 566 15 561.5L0 557Z" fill="#513eb8"></path></svg>